<svg width="209" height="77" viewBox="0 0 209 77" fill="none" xmlns="http://www.w3.org/2000/svg">
<path d="M209.001 12.2126C190.942 23.2159 141.242 30.0918 123.964 25.5645C123.547 41.7747 182.54 38.9431 209.001 12.2126ZM90.2257 68.5684C135.814 76.0139 137.54 26.5472 190.929 46.1987C141.837 46.735 137.699 89.1193 100.66 73.5721L90.2257 68.5684ZM117.335 8.45154C125.471 11.2932 125.485 15.7871 125.485 15.7871C125.485 15.7871 131.767 6.72592 117.645 0C117.645 0 99.4484 5.50999 108.812 26.2408C107.988 10.0872 117.332 8.45154 117.332 8.45154M106.918 28.4994C87.1772 30.4415 76.6759 22.1799 68.3011 23.8955C63.0589 24.9682 58.1531 32.3204 59.8691 41.2017H56.5212C49.5764 30.8646 52.3355 18.109 59.8321 14.2614C71.2688 8.38825 94.5729 28.7426 107.527 27.8331C107.749 27.8198 108.086 27.7898 108.473 27.7232C108.698 27.6866 108.16 28.3661 106.915 28.4961L106.918 28.4994Z" fill="#951B81"/>
<path d="M7.98167 46.212C7.64856 46.0221 6.78719 45.6723 5.66674 45.6723C3.87671 45.6723 1.17483 47.288 1.17483 50.6926C1.17483 53.5575 3.17348 55.7129 5.66674 55.7129C6.68289 55.7129 7.64856 55.4164 8.01868 55.2432L8.47629 56.1793C7.96821 56.4591 7.09002 56.7689 5.6701 56.7689C2.93458 56.7689 0.00390625 54.7035 0.00390625 50.6893C0.00390625 46.9016 2.91776 44.6096 5.86526 44.6096C7.05637 44.6096 8.00522 44.9228 8.47965 45.2359L7.9884 46.2087L7.98167 46.212Z" fill="#1D1D1B"/>
<path d="M18.3551 56.7723L16.7771 52.7414H11.9689L10.337 56.8056L9.32083 56.4591L14.0415 44.7162H14.8491L19.4621 56.4225L18.3551 56.7689V56.7723ZM14.3747 46.665L12.3928 51.702H16.3565L14.3747 46.665Z" fill="#1D1D1B"/>
<path d="M18.3753 60.3534V59.3474C19.8659 59.3474 21.3935 58.5478 21.3935 55.9428V44.7229H22.5173V56.1859C22.5173 58.8976 20.9224 60.3567 18.3787 60.3567L18.3753 60.3534Z" fill="#1D1D1B"/>
<path d="M33.4796 56.7723L31.9015 52.7414H27.0933L25.4614 56.8056L24.4453 56.4591L29.166 44.7162H29.9735L34.5866 56.4225L33.4796 56.7689V56.7723ZM29.4957 46.665L27.5139 51.702H31.4776L29.4957 46.665Z" fill="#1D1D1B"/>
<path d="M40.5724 56.669H36.7669V44.7196H40.8012C45.2393 44.7196 46.4506 47.9143 46.4506 50.5227C46.4506 54.0472 43.9405 56.6723 40.5724 56.6723V56.669ZM40.3066 45.7789H37.884V55.6296H40.2191C42.0596 55.6296 45.2527 54.5869 45.2527 50.4194C45.2527 45.9222 41.4809 45.7822 40.3066 45.7822V45.7789Z" fill="#1D1D1B"/>
<path d="M48.927 45.7789V49.9997H53.7352V51.0424H48.927V55.6296H54.1188V56.6723H47.8032V44.7229H54.1188V45.7822H48.927V45.7789Z" fill="#1D1D1B"/>
<path d="M60.754 56.669H56.612V44.7196H60.542C62.6484 44.7196 64.7177 45.5191 64.7177 47.9343C64.7177 49.0103 64.2971 49.8265 63.3314 50.4361C64.4552 50.8192 65.1214 51.9285 65.1214 53.2511C65.1214 55.6296 62.9276 56.6723 60.754 56.6723V56.669ZM60.6127 46.785H58.9976V49.5999H60.7002C61.5784 49.5999 62.2782 49.2002 62.2782 47.9842C62.2782 47.1681 61.4539 46.785 60.6127 46.785ZM60.5084 51.5787H59.001V54.6169L60.5622 54.6002C61.5447 54.5836 62.6686 54.3737 62.6686 53.0179C62.6686 51.9418 61.5616 51.5754 60.5118 51.5754L60.5084 51.5787Z" fill="#1D1D1B"/>
<path d="M71.6086 56.7723C69.0111 56.7723 66.538 55.503 66.538 52.6381V44.7162H68.9404V52.4982C68.9404 54.0106 70.256 54.7035 71.6591 54.7035C73.2372 54.7035 74.2028 53.9739 74.2028 52.3749V44.7162H76.6053V52.6181C76.6053 55.4131 74.1827 56.7689 71.6053 56.7689L71.6086 56.7723Z" fill="#1D1D1B"/>
<path d="M85.1685 56.8622L82.4128 52.2084H81.0265V56.6723H78.6409V44.7229H82.2008C84.7782 44.7229 86.797 45.7989 86.797 48.2841C86.797 49.9497 86.1476 50.9225 84.7277 51.722L87.7795 56.4458L85.1651 56.8622H85.1685ZM81.9754 46.785H81.0265V50.1729H82.0258C83.0083 50.1729 84.3778 49.9131 84.3778 48.454C84.3778 46.9948 83.0083 46.785 81.9754 46.785Z" fill="#1D1D1B"/>
<path d="M94.2869 56.7723C90.727 56.7723 88.2506 54.2704 88.2506 50.7626C88.2506 46.9582 90.9861 44.6296 94.6368 44.6296C95.7606 44.6296 97.1806 44.8028 98.3044 45.4991L97.3051 47.2014C96.6557 46.8882 95.4645 46.6817 94.7445 46.6817C92.2176 46.6817 90.6563 48.1941 90.6563 50.7626C90.6563 52.9512 92.0426 54.7068 94.3575 54.7068C95.515 54.7068 95.7775 54.6535 96.4471 54.377V51.772H93.9572V49.9464H98.7485V55.2632C97.5372 56.3758 96.2923 56.7756 94.2936 56.7756L94.2869 56.7723Z" fill="#1D1D1B"/>
<path d="M106.427 56.7723C102.759 56.7723 100.232 54.3737 100.232 50.6926C100.232 47.358 102.53 44.6296 106.444 44.6296C110.357 44.6296 112.567 47.4446 112.567 50.676C112.567 54.2538 110.216 56.7723 106.427 56.7723ZM110.148 50.6926C110.148 48.4706 108.903 46.6817 106.41 46.6817C103.917 46.6817 102.655 48.4706 102.655 50.6926C102.655 52.7614 103.917 54.7235 106.356 54.7235C108.796 54.7235 110.128 52.9346 110.128 50.6926H110.148Z" fill="#1D1D1B"/>
<path d="M117.318 56.7723C115.707 56.7723 114.495 56.4591 113.301 55.3664L114.741 53.7174C115.461 54.3071 116.285 54.7068 117.231 54.7068C118.055 54.7068 118.984 54.2738 118.984 53.3343C118.984 52.275 118.072 51.8586 117.002 51.4222C115.528 50.8159 113.863 50.1729 113.863 47.7744C113.863 45.8122 115.862 44.613 117.652 44.613C119.038 44.613 120.074 44.8561 121.265 45.5524L120.195 47.3246C119.317 46.8549 118.668 46.6817 117.618 46.6817C116.952 46.6817 116.198 47.1348 116.198 47.8643C116.198 48.9237 117.392 49.2202 118.637 49.7565C119.987 50.3295 121.41 51.1623 121.41 53.2644C121.41 55.3664 119.32 56.7723 117.322 56.7723H117.318Z" fill="#1D1D1B"/>
<path d="M30.5758 62.7053V64.6342H33.281V65.5836H30.5758V68.6217H29.4856V61.7459H33.5031V62.7053H30.5758Z" fill="#1D1D1B"/>
<path d="M37.3894 68.6817C35.8753 68.6817 34.5933 67.9022 34.5933 66.3531V61.7459H35.6936V66.2632C35.6936 67.2226 36.4708 67.7223 37.4197 67.7223C38.3685 67.7223 39.0347 67.2726 39.0347 66.1932V61.7459H40.135V66.3431C40.135 67.9022 38.8228 68.6817 37.3894 68.6817Z" fill="#1D1D1B"/>
<path d="M46.7971 68.6217L42.9815 63.5048V68.6217H41.8813V61.7459H43.0825L46.8375 66.8328V61.7459H47.9378V68.6217H46.7971Z" fill="#1D1D1B"/>
<path d="M52.248 68.6217H49.7749V61.7459H52.3187C54.6201 61.7459 55.7709 63.185 55.7709 65.0939C55.7709 67.1526 54.2668 68.6217 52.248 68.6217ZM52.036 62.7053H50.8651V67.6623H52.0562C53.3584 67.6623 54.6605 66.8928 54.6605 65.0339C54.6605 63.0351 53.1767 62.7053 52.036 62.7053Z" fill="#1D1D1B"/>
<path d="M61.612 68.6817L60.8045 66.633H58.0387L57.2312 68.6917L56.1713 68.4818L58.9573 61.7459H60.0071L62.7123 68.5018L61.612 68.6817ZM59.4418 63.0451L58.4122 65.7035H60.4411L59.4418 63.0451Z" fill="#1D1D1B"/>
<path d="M66.6154 68.6817C64.6066 68.6817 63.1531 67.3525 63.1531 65.1738C63.1531 62.9952 64.7076 61.6859 66.6255 61.6859C67.2816 61.6859 67.9074 61.8259 68.3516 62.1157L67.8671 62.9352C67.5541 62.7453 67.0797 62.6554 66.5447 62.6554C65.3435 62.6554 64.2634 63.6548 64.2634 65.1738C64.2634 66.613 65.2224 67.7223 66.6154 67.7223C67.1302 67.7223 67.6551 67.6223 67.9983 67.4525L68.4323 68.252C67.968 68.5418 67.3422 68.6817 66.6154 68.6817Z" fill="#1D1D1B"/>
<path d="M69.5191 68.6217V61.7459H70.6093V68.6217H69.5191Z" fill="#1D1D1B"/>
<path d="M75.5521 68.6817C73.4828 68.6817 72.0595 67.2726 72.0595 65.1838C72.0595 63.255 73.3819 61.6959 75.5622 61.6959C77.7425 61.6959 79.0245 63.305 79.0245 65.1738C79.0245 67.2426 77.6517 68.6817 75.5521 68.6817ZM75.5521 62.6454C74.0178 62.6454 73.1699 63.7947 73.1699 65.1838C73.1699 66.4731 73.9976 67.7223 75.5117 67.7223C77.0258 67.7223 77.9141 66.583 77.9141 65.1838C77.9141 63.7847 77.0864 62.6454 75.5521 62.6454ZM75.0676 61.4561L74.5629 60.8964L76.1779 59.5073L76.7937 60.2268L75.0676 61.4561Z" fill="#1D1D1B"/>
<path d="M85.3939 68.6217L81.5783 63.5048V68.6217H80.4781V61.7459H81.6793L85.4343 66.8328V61.7459H86.5346V68.6217H85.3939Z" fill="#1D1D1B"/>
</svg>
